# xmcd
#
# Track frame offsets:
#	150
#	8479
#	20607
#	31975
#	48769
#	59784
#	71746
#	79646
#	95888
#	105126
#	115074
#	123921
#	136791
#	151864
#	164229
#	176999
#	185368
#	196904
#	207416
#	218215
#	231402
#	251278
#	264622
#	274676
#
# Disc length: 3832 seconds
#
# Revision: 2
# Processed by: cddbd v1.5.1PL2 Copyright (c) Steve Scherf et al.
# Submitted via: EasyCDDAExtractor 6.2.0.3
#
DISCID=520ef618
DTITLE=Johnny Cash - Personal File Doppel-CD - Disc 2
DYEAR=2006
DGENRE=Country
TTITLE0=Seal It In My Heart And Mind
TTITLE1=Wildwood In The Pines
TTITLE2=Who At My Door Is Standing
TTITLE3=Have Thine Own Way Lord
TTITLE4=Lights Of Magdala
TTITLE5=If Jesus Ever Loved A Woman
TTITLE6=The Lily Of The Valley
TTITLE7=Have A Drink Of Water
TTITLE8=The Way Worn Traveler
TTITLE9=Look Unto The East
TTITLE10=Matthew 24 (Is Knocking At The Door)
TTITLE11=The House Is Falling Down
TTITLE12=One Of These Days I'm Gonna Sit Down And Talk To Paul
TTITLE13=What On Earth (Will You Do For Heaven's Sake)
TTITLE14=My Children Walk In Truth
TTITLE15=No Earthly Good
TTITLE16=Sanctified
TTITLE17=Lord, Lord, Lord
TTITLE18=What Is Man
TTITLE19=Over The Next Hill (We'll Be Home)
TTITLE20=A Half A Mile A Day
TTITLE21=Farther Along
TTITLE22=Life's Railway To Heaven
TTITLE23=In The Sweet Bye And Bye
EXTD=SONY BMG Music Entertainment\n8 2796 94265 2
EXTT0=
EXTT1=
EXTT2=
EXTT3=
EXTT4=
EXTT5=
EXTT6=
EXTT7=
EXTT8=
EXTT9=
EXTT10=
EXTT11=
EXTT12=
EXTT13=
EXTT14=
EXTT15=
EXTT16=
EXTT17=
EXTT18=
EXTT19=
EXTT20=
EXTT21=
EXTT22=
EXTT23=
PLAYORDER=
